<?xml version="1.0" encoding="UTF-8" standalone="no"?>
<!-- Generator: Adobe Illustrator 19.0.0, SVG Export Plug-In . SVG Version: 6.00 Build 0)  -->

<svg
   xmlns:dc="http://purl.org/dc/elements/1.1/"
   xmlns:cc="http://creativecommons.org/ns#"
   xmlns:rdf="http://www.w3.org/1999/02/22-rdf-syntax-ns#"
   xmlns:svg="http://www.w3.org/2000/svg"
   xmlns="http://www.w3.org/2000/svg"
   xmlns:sodipodi="http://sodipodi.sourceforge.net/DTD/sodipodi-0.dtd"
   xmlns:inkscape="http://www.inkscape.org/namespaces/inkscape"
   version="1.1"
   id="Layer_1"
   x="0px"
   y="0px"
   viewBox="0 0 511.99998 241.91516"
   xml:space="preserve"
   inkscape:version="0.91 r13725"
   sodipodi:docname="minq.svg"
   width="512"
   height="241.91516"
   inkscape:export-filename="/Users/richbarn/Pictures/minq/zoo.png"
   inkscape:export-xdpi="90"
   inkscape:export-ydpi="90"><metadata
     id="metadata51"><rdf:RDF><cc:Work
         rdf:about=""><dc:format>image/svg+xml</dc:format><dc:type
           rdf:resource="http://purl.org/dc/dcmitype/StillImage" /><dc:title></dc:title></cc:Work></rdf:RDF></metadata><defs
     id="defs49" /><sodipodi:namedview
     pagecolor="#ffffff"
     bordercolor="#666666"
     borderopacity="1"
     objecttolerance="10"
     gridtolerance="10"
     guidetolerance="10"
     inkscape:pageopacity="0"
     inkscape:pageshadow="2"
     inkscape:window-width="1437"
     inkscape:window-height="788"
     id="namedview47"
     showgrid="false"
     inkscape:zoom="1.9023438"
     inkscape:cx="256"
     inkscape:cy="120.95758"
     inkscape:window-x="4"
     inkscape:window-y="0"
     inkscape:window-maximized="0"
     inkscape:current-layer="Layer_1"
     fit-margin-top="0"
     fit-margin-left="0"
     fit-margin-right="0"
     fit-margin-bottom="0" /><rect
     style="opacity:1;fill:#25455b;fill-opacity:1;stroke:none;stroke-opacity:1"
     id="rect4706"
     width="512"
     height="241.91516"
     x="0"
     y="0" /><g
     id="g17"
     transform="matrix(0.47345203,0,0,0.47345203,22.187366,14.084836)" /><g
     id="g19"
     transform="matrix(0.47345203,0,0,0.47345203,22.187366,14.084836)" /><g
     id="g21"
     transform="matrix(0.47345203,0,0,0.47345203,22.187366,14.084836)" /><g
     id="g23"
     transform="matrix(0.47345203,0,0,0.47345203,22.187366,14.084836)" /><g
     id="g25"
     transform="matrix(0.47345203,0,0,0.47345203,22.187366,14.084836)" /><g
     id="g27"
     transform="matrix(0.47345203,0,0,0.47345203,22.187366,14.084836)" /><g
     id="g29"
     transform="matrix(0.47345203,0,0,0.47345203,22.187366,14.084836)" /><g
     id="g31"
     transform="matrix(0.47345203,0,0,0.47345203,22.187366,14.084836)" /><g
     id="g33"
     transform="matrix(0.47345203,0,0,0.47345203,22.187366,14.084836)" /><g
     id="g35"
     transform="matrix(0.47345203,0,0,0.47345203,22.187366,14.084836)" /><g
     id="g37"
     transform="matrix(0.47345203,0,0,0.47345203,22.187366,14.084836)" /><g
     id="g39"
     transform="matrix(0.47345203,0,0,0.47345203,22.187366,14.084836)" /><g
     id="g41"
     transform="matrix(0.47345203,0,0,0.47345203,22.187366,14.084836)" /><g
     id="g43"
     transform="matrix(0.47345203,0,0,0.47345203,22.187366,14.084836)" /><g
     id="g45"
     transform="matrix(0.47345203,0,0,0.47345203,22.187366,14.084836)" /><text
     xml:space="preserve"
     style="font-style:normal;font-weight:normal;font-size:18.93808174px;line-height:125%;font-family:sans-serif;letter-spacing:0px;word-spacing:0px;fill:#000000;fill-opacity:1;stroke:none;stroke-width:1px;stroke-linecap:butt;stroke-linejoin:miter;stroke-opacity:1"
     x="378.12741"
     y="113.0423"
     id="text4204"
     sodipodi:linespacing="125%"><tspan
       sodipodi:role="line"
       id="tspan4206"
       x="378.12741"
       y="113.0423" /></text>
<g
     id="g4287"
     transform="matrix(0.47345203,0,0,0.47345203,-4.9764709,0.67772554)"><path
       sodipodi:nodetypes="ccccc"
       inkscape:connector-curvature="0"
       id="rect4324"
       d="M 292.46911,72.436326 527.05641,206.9 l 0,86.05675 -234.5874,-134.46367 z"
       style="fill:#38c3e6;fill-opacity:1;stroke:#38c3e6;stroke-opacity:1" /><path
       style="fill:#38c3e6;fill-opacity:1;stroke:#38c3e6;stroke-opacity:1"
       d="M 292.58561,72.436326 57.998215,206.9 l 0,86.05675 234.587395,-134.46367 z"
       id="path4328"
       inkscape:connector-curvature="0"
       sodipodi:nodetypes="ccccc" /><path
       sodipodi:nodetypes="ccccc"
       inkscape:connector-curvature="0"
       id="path4338"
       d="M 292.58561,428.66162 57.998215,294.19795 l 0,-86.05675 234.587395,134.46367 z"
       style="fill:#38c3e6;fill-opacity:1;stroke:#38c3e6;stroke-opacity:1" /><path
       inkscape:connector-curvature="0"
       id="path4186"
       d="m 122.69153,105.07522 c 20.67107,0.52163 36.20868,16.31036 52.11335,27.45485 14.89337,11.15222 28.62739,25.23534 46.46383,31.45378 19.7686,2.86932 38.91108,-4.48843 58.5536,-5.75622 26.82539,-3.18444 56.22369,-0.0986 78.08563,17.15806 26.75984,19.64092 47.50057,49.31778 52.10915,82.60424 1.70869,15.85513 -5.25283,31.45202 -16.51435,42.40848 -17.43749,19.198 -40.02921,32.64182 -62.72687,44.68599 -4.53176,0.31879 -9.95359,-4.03394 -6.65558,-8.61578 3.86405,-5.51543 10.87451,-10.96532 7.25442,-18.54944 -2.94268,-6.14783 -9.06713,-10.33087 -10.9842,-17.17356 -7.47514,-17.90374 -0.31364,-41.90473 18.307,-49.59776 4.19058,-1.81393 13.61358,-1.99493 11.13339,-8.68831 -3.36407,-5.76498 -10.5595,-0.76824 -15.18849,0.55117 -11.27988,5.09561 -19.85749,15.14855 -24.07365,26.69072 -11.05539,-13.07106 -27.94065,-19.97333 -44.86923,-20.26306 -9.11227,-0.96631 -18.23326,-2.40311 -26.92693,-5.38953 3.01707,-10.05538 5.31491,-22.81073 -1.86075,-31.51663 -4.94255,-1.97082 -8.35263,4.44054 -5.44341,8.24903 1.87313,7.55048 1.53248,16.69411 -3.64689,22.79309 -16.20517,8.58753 -32.41057,17.1746 -48.6156,25.76241 -4.81741,-1.18107 -13.17884,-4.23094 -10.42058,-10.75627 3.26355,-5.88757 8.20053,-11.53496 8.85615,-18.44997 -4.27146,-10.03175 -10.7984,-19.28965 -16.26805,-28.80011 -18.98155,-29.86078 -41.04569,-58.26843 -68.636203,-80.58808 -6.062725,-3.66877 -11.596213,-10.76655 -10.072474,-18.1288 3.153813,-4.86 10.295404,-3.49137 15.132634,-5.34252 8.197893,-1.58988 16.543513,-2.34933 24.894103,-2.19578 z"
       style="fill:#25455b;fill-opacity:1" /><path
       inkscape:connector-curvature="0"
       id="rect4181"
       d="m 418.47135,288.62944 c 26.17261,19.03297 37.30963,51.05648 50.71262,79.12741 7.03944,15.77885 14.791,31.07721 23.95341,45.71656 -29.4097,-14.68983 -61.19207,-31.47849 -76.96116,-61.87295 -7.73756,-15.025 -13.69664,-32.68612 -10.03592,-49.5459 3.94995,-4.58956 7.35967,-9.61271 10.48275,-14.79272 0.6161,0.45587 1.2322,0.91173 1.8483,1.3676 z"
       style="fill:#25455b;fill-opacity:1" /><path
       sodipodi:nodetypes="cccccccssscccccccssccccccccccccscsccccccscscssccccccccccccccccccccccccccccc"
       inkscape:connector-curvature="0"
       id="path15"
       d="m 76.562782,98.477643 c -3.250335,1.097198 -5.556435,3.972487 -5.921188,7.381387 -0.938421,8.65818 0.950537,25.39552 13.9937,33.18254 4.335608,2.59429 17.304446,13.82702 33.654176,32.95557 12.72778,14.88717 30.94227,38.59531 46.77585,68.32941 l -13.23684,25.20788 -5.05048,0.0881 c -4.9142,0.0372 -6.85076,2.34323 -7.2758,6.94499 -0.41161,4.45652 2.76097,7.73951 7.61425,7.92581 l 30.39378,1.16666 c 2.6726,0.10259 5.25406,0.94687 7.62319,-0.30205 l 49.48934,-26.22199 c 12.08981,4.58629 22.8374,5.77792 32.42604,6.8131 8.22534,0.90465 15.33034,1.68115 20.8843,4.56168 9.83265,5.10444 16.18032,13.35266 17.92366,15.82155 -0.53976,14.02235 4.45609,28.0776 14.25402,39.07413 l -10.77539,17.64146 -7.69164,-0.22297 c -4.85483,-0.14073 -9.31862,3.0645 -9.14128,7.91815 0.19612,5.36812 3.46161,9.3374 8.82974,8.83741 11.24136,0.4484 14.84219,1.31495 27.45799,1.85937 2.3218,1.01641 4.96604,0.96315 7.25024,-0.11908 1.80296,-0.85485 30.31467,-14.45702 54.55546,-34.93354 1.59717,12.45544 6.46981,29.35942 19.39977,48.29772 18.866,27.63484 57.94756,47.73888 81.38878,57.90847 10.59226,4.58952 17.989,7.14235 18.91512,7.4546 4.26265,1.4631 8.94493,-0.54795 10.8373,-4.6512 1.87659,-4.09621 0.36553,-8.95844 -3.52747,-11.24531 -16.63331,-9.82821 -28.25289,-35.53729 -40.54865,-62.75453 -14.06594,-31.12917 -28.57684,-63.20614 -53.75767,-79.5117 4.93985,-19.16068 -0.0767,-43.3777 -14.31953,-67.87047 -15.25254,-26.23451 -38.65168,-48.09839 -62.58234,-58.46731 -31.17516,-13.50791 -65.99466,-7.92047 -91.41374,-3.84678 -12.73539,2.03779 -25.90296,4.15772 -30.58532,2.1289 -7.5677,-3.27902 -20.50098,-13.47309 -33.02189,-23.322 -15.90309,-12.51688 -32.34013,-25.45586 -45.63471,-31.216277 -25.95322,-11.248752 -67.441393,2.585948 -69.182736,3.186532 z m 17.096123,25.462017 c -3.482294,-2.08465 -4.878543,-6.7422 -5.368908,-10.62452 13.114643,-3.56154 36.638853,-7.86775 50.461053,-1.87872 11.20651,4.85568 27.42316,17.62285 41.74438,28.89122 14.01471,11.03379 27.25548,21.46283 36.91125,25.64659 9.39782,4.07199 23.05996,1.87268 40.36875,-0.89484 24.58485,-3.94955 55.17061,-8.85203 81.63032,2.61273 43.62967,18.90432 78.96248,78.91326 65.1842,110.71241 -12.56099,28.98975 -59.32573,54.5007 -72.54813,61.26223 l -2.94959,-1.27803 5.68234,-7.15304 c 4.9155,-6.18108 4.62409,-15.04029 -0.66823,-20.6194 -9.65843,-10.16836 -13.10814,-24.39771 -8.99187,-37.1132 3.7068,-11.44763 12.45912,-19.25224 24.01037,-21.4204 4.77467,-0.89804 7.91676,-5.49461 7.01969,-10.26886 -0.89806,-4.77467 -5.49463,-7.91676 -10.26424,-7.03039 -15.53506,2.9221 -28.17982,12.74815 -34.92146,26.83162 -3.918,-3.70483 -8.91414,-7.60857 -14.91698,-10.72059 -8.475,-4.40056 -17.51955,-5.39192 -27.08212,-6.42853 -7.45461,-0.82622 -15.09766,-1.6578 -23.26771,-4.13639 2.00409,-6.86677 3.21892,-16.72327 -0.7397,-27.47785 -1.67998,-4.56311 -6.7258,-6.9032 -11.28946,-5.22462 -4.55848,1.66928 -6.90319,6.72581 -5.22461,11.28946 3.20065,8.72537 0.66153,16.56278 -0.88652,20.0475 l -46.92071,24.86757 -6.4161,-2.78003 8.5869,-16.74914 c 1.30102,-2.53033 1.29456,-5.52543 -2.6e-4,-8.05551 C 151.44001,175.45432 106.92979,131.87622 93.658905,123.93966 Z M 408.11623,320.78293 c -1.17792,-8.55306 -0.32896,-14.23226 -0.0718,-15.59155 2.97528,-3.53114 5.68554,-7.18981 8.01267,-10.93818 19.56903,14.20699 32.45546,42.71614 44.96549,70.38349 6.28051,13.92161 12.40411,27.46885 19.32961,39.25343 -20.07209,-10.24408 -43.51262,-25.10647 -55.83007,-43.12612 -11.29711,-16.5693 -15.15546,-30.88554 -16.40589,-39.98107 z"
       style="fill:#f6fcfe;fill-opacity:1" /><path
       sodipodi:nodetypes="ccccc"
       inkscape:connector-curvature="0"
       id="path4384"
       d="m 292.46911,428.66162 234.5873,-134.46367 0,-86.05675 -234.5874,134.46367 z"
       style="fill:#38c3e6;fill-opacity:1;stroke:#38c3e6;stroke-opacity:1" /><path
       transform="matrix(0.92799285,0,0,0.92799285,40.25622,-346.74378)"
       d="m 588.15625,582.73047 a 3.8799675,3.8799675 0 0 0 -2.02148,0.51562 l -25.13282,14.45899 a 3.8799675,3.8799675 0 0 0 -1.94336,3.36328 l 0,24.45312 0,61.0879 a 3.8799675,3.8799675 0 0 0 3.87891,3.8789 l 28.57422,0 a 3.8799675,3.8799675 0 0 0 3.8789,-3.8789 l 0,-62.14844 15.88868,9.05664 a 3.8799675,3.8799675 0 0 0 3.85742,-0.008 l 15.66992,-9.01563 0,62.11524 a 3.8799675,3.8799675 0 0 0 3.87891,3.8789 l 28.57617,0 a 3.8799675,3.8799675 0 0 0 3.8789,-3.8789 l 0,-61.0879 0,-24.17773 0,-0.27539 a 3.8799675,3.8799675 0 0 0 -1.94335,-3.36328 l -25.13086,-14.45899 a 3.8799675,3.8799675 0 0 0 -3.8711,0 l -23.09375,13.28711 -23.0957,-13.28711 a 3.8799675,3.8799675 0 0 0 -1.84961,-0.51562 z"
       id="path4231"
       style="fill:#38c3e6;fill-opacity:1;stroke:none;stroke-opacity:1"
       inkscape:original="M 588.07031 586.60938 L 562.9375 601.06836 L 562.9375 625.52148 L 562.9375 686.60938 L 591.51172 686.60938 L 591.51172 617.7832 L 613.20117 630.14648 L 634.68555 617.78516 L 634.68555 686.60938 L 663.26172 686.60938 L 663.26172 625.52148 L 663.26172 601.34375 L 663.26172 601.06836 L 638.13086 586.60938 L 613.10156 601.00977 L 588.07031 586.60938 z "
       inkscape:radius="3.8795795"
       sodipodi:type="inkscape:offset" /><path
       sodipodi:nodetypes="cccccccccccccccccccccccc"
       inkscape:connector-curvature="0"
       id="path4237"
       d="m 943.44593,194.02441 c -0.64247,1e-5 -1.27377,0.16807 -1.83122,0.48748 l -25.85477,14.82067 c -1.14472,0.65647 -1.8508,1.87515 -1.851,3.19474 l 0,62.3497 c 2e-4,1.31959 0.70628,2.53826 1.851,3.19474 l 25.85477,14.82066 c 0.55745,0.31941 1.18875,0.48748 1.83122,0.48749 l 44.40983,0 21.62214,12.47875 c 2.1043,1.61987 6.02,1.61987 8.3182,0 l 25.2966,-14.36574 c 2.4668,-1.41562 2.4668,-4.97387 0,-6.38949 l -20.6596,-11.84357 0.84,-60.68396 c 0.018,-1.33757 -0.6906,-2.57977 -1.851,-3.24512 l -25.8529,-14.81887 c -0.55745,-0.31941 -1.18874,-0.48747 -1.83122,-0.48748 z m 3.53832,31.44197 43.19022,0 -0.22666,36.33123 -42.96356,0.12951 z"
       style="opacity:1;fill:#f6fcfe;fill-opacity:1;stroke:none;stroke-opacity:1" /><path
       transform="matrix(0.8983717,0,0,0.8983717,72.189822,-327.88744)"
       d="m 703.47461,580.95312 a 5.6559787,5.6559787 0 0 0 -5.65625,5.65626 l 0,100 a 5.6559787,5.6559787 0 0 0 5.65625,5.65624 l 28.23242,0 a 5.6559787,5.6559787 0 0 0 5.65625,-5.65624 l 0,-100 a 5.6559787,5.6559787 0 0 0 -5.65625,-5.65626 l -28.23242,0 z"
       id="path4233"
       style="fill:#38c3e6;fill-opacity:1;stroke:none;stroke-opacity:1"
       inkscape:original="M 703.47461 586.60938 L 703.47461 686.60938 L 731.70703 686.60938 L 731.70703 586.60938 L 703.47461 586.60938 z "
       inkscape:radius="5.6554132"
       sodipodi:type="inkscape:offset" /><path
       transform="matrix(0.92395422,0,0,0.92395422,64.713525,-344.39187)"
       d="m 843.63086,582.73047 a 3.8799675,3.8799675 0 0 0 -3.87891,3.89258 l 0.15625,42.88281 -40.02343,-45.15234 a 3.8799675,3.8799675 0 0 0 -4.85743,-0.77735 l -25.0625,14.61328 a 3.8799675,3.8799675 0 0 0 -1.92382,3.35157 l 0,85.54101 a 3.8799675,3.8799675 0 0 0 3.8789,3.87891 l 28.57422,0 a 3.8799675,3.8799675 0 0 0 3.87891,-3.88086 l -0.0117,-42.8711 39.60351,45.27344 a 3.8799675,3.8799675 0 0 0 4.875,0.79688 L 874.16211,675.5 a 3.8799675,3.8799675 0 0 0 1.92383,-3.35156 l 0,-0.27344 0,-85.26562 a 3.8799675,3.8799675 0 0 0 -3.87891,-3.87891 l -28.57617,0 z"
       id="path4235"
       style="fill:#38c3e6;fill-opacity:1;stroke:none;stroke-opacity:1"
       inkscape:original="M 843.63086 586.60938 L 843.82422 639.77148 L 796.98242 586.92773 L 771.91992 601.54102 L 771.91992 687.08203 L 800.49414 687.08203 L 800.48047 633.87891 L 846.88477 686.92773 L 872.20703 672.14844 L 872.20703 671.875 L 872.20703 586.60938 L 843.63086 586.60938 z "
       inkscape:radius="3.8795795"
       sodipodi:type="inkscape:offset" /></g></svg>